<?xml version="1.0" encoding="utf-8" standalone="no"?>
<!DOCTYPE svg PUBLIC "-//W3C//DTD SVG 1.1//EN"
  "http://www.w3.org/Graphics/SVG/1.1/DTD/svg11.dtd">
<svg xmlns:xlink="http://www.w3.org/1999/xlink" width="460.8pt" height="345.6pt" viewBox="0 0 460.8 345.6" xmlns="http://www.w3.org/2000/svg" version="1.1">
 <metadata>
  <rdf:RDF xmlns:dc="http://purl.org/dc/elements/1.1/" xmlns:cc="http://creativecommons.org/ns#" xmlns:rdf="http://www.w3.org/1999/02/22-rdf-syntax-ns#">
   <cc:Work>
    <dc:type rdf:resource="http://purl.org/dc/dcmitype/StillImage"/>
    <dc:date>2023-01-28T20:51:53.054274</dc:date>
    <dc:format>image/svg+xml</dc:format>
    <dc:creator>
     <cc:Agent>
      <dc:title>Matplotlib v3.6.2, https://matplotlib.org/</dc:title>
     </cc:Agent>
    </dc:creator>
   </cc:Work>
  </rdf:RDF>
 </metadata>
 <defs>
  <style type="text/css">*{stroke-linejoin: round; stroke-linecap: butt}</style>
 </defs>
 <g id="figure_1">
  <g id="patch_1">
   <path d="M 0 345.6 
L 460.8 345.6 
L 460.8 0 
L 0 0 
z
" style="fill: #ffffff"/>
  </g>
  <g id="axes_1">
   <g id="patch_2">
    <path d="M 57.6 307.584 
L 414.72 307.584 
L 414.72 41.472 
L 57.6 41.472 
z
" style="fill: #ffffff"/>
   </g>
   <g id="matplotlib.axis_1">
    <g id="xtick_1">
     <g id="line2d_1">
      <defs>
       <path id="m9f8faa23fd" d="M 0 0 
L 0 3.5 
" style="stroke: #000000; stroke-width: 0.8"/>
      </defs>
      <g>
       <use xlink:href="#m9f8faa23fd" x="67.321032" y="307.584" style="stroke: #000000; stroke-width: 0.8"/>
      </g>
     </g>
     <g id="text_1">
      <!-- 0 -->
      <g transform="translate(64.139782 322.182437) scale(0.1 -0.1)">
       <defs>
        <path id="DejaVuSans-30" d="M 2034 4250 
Q 1547 4250 1301 3770 
Q 1056 3291 1056 2328 
Q 1056 1369 1301 889 
Q 1547 409 2034 409 
Q 2525 409 2770 889 
Q 3016 1369 3016 2328 
Q 3016 3291 2770 3770 
Q 2525 4250 2034 4250 
z
M 2034 4750 
Q 2819 4750 3233 4129 
Q 3647 3509 3647 2328 
Q 3647 1150 3233 529 
Q 2819 -91 2034 -91 
Q 1250 -91 836 529 
Q 422 1150 422 2328 
Q 422 3509 836 4129 
Q 1250 4750 2034 4750 
z
" transform="scale(0.015625)"/>
       </defs>
       <use xlink:href="#DejaVuSans-30"/>
      </g>
     </g>
    </g>
    <g id="xtick_2">
     <g id="line2d_2">
      <g>
       <use xlink:href="#m9f8faa23fd" x="113.833144" y="307.584" style="stroke: #000000; stroke-width: 0.8"/>
      </g>
     </g>
     <g id="text_2">
      <!-- 50 -->
      <g transform="translate(107.470644 322.182437) scale(0.1 -0.1)">
       <defs>
        <path id="DejaVuSans-35" d="M 691 4666 
L 3169 4666 
L 3169 4134 
L 1269 4134 
L 1269 2991 
Q 1406 3038 1543 3061 
Q 1681 3084 1819 3084 
Q 2600 3084 3056 2656 
Q 3513 2228 3513 1497 
Q 3513 744 3044 326 
Q 2575 -91 1722 -91 
Q 1428 -91 1123 -41 
Q 819 9 494 109 
L 494 744 
Q 775 591 1075 516 
Q 1375 441 1709 441 
Q 2250 441 2565 725 
Q 2881 1009 2881 1497 
Q 2881 1984 2565 2268 
Q 2250 2553 1709 2553 
Q 1456 2553 1204 2497 
Q 953 2441 691 2322 
L 691 4666 
z
" transform="scale(0.015625)"/>
       </defs>
       <use xlink:href="#DejaVuSans-35"/>
       <use xlink:href="#DejaVuSans-30" x="63.623047"/>
      </g>
     </g>
    </g>
    <g id="xtick_3">
     <g id="line2d_3">
      <g>
       <use xlink:href="#m9f8faa23fd" x="160.345257" y="307.584" style="stroke: #000000; stroke-width: 0.8"/>
      </g>
     </g>
     <g id="text_3">
      <!-- 100 -->
      <g transform="translate(150.801507 322.182437) scale(0.1 -0.1)">
       <defs>
        <path id="DejaVuSans-31" d="M 794 531 
L 1825 531 
L 1825 4091 
L 703 3866 
L 703 4441 
L 1819 4666 
L 2450 4666 
L 2450 531 
L 3481 531 
L 3481 0 
L 794 0 
L 794 531 
z
" transform="scale(0.015625)"/>
       </defs>
       <use xlink:href="#DejaVuSans-31"/>
       <use xlink:href="#DejaVuSans-30" x="63.623047"/>
       <use xlink:href="#DejaVuSans-30" x="127.246094"/>
      </g>
     </g>
    </g>
    <g id="xtick_4">
     <g id="line2d_4">
      <g>
       <use xlink:href="#m9f8faa23fd" x="206.857369" y="307.584" style="stroke: #000000; stroke-width: 0.8"/>
      </g>
     </g>
     <g id="text_4">
      <!-- 150 -->
      <g transform="translate(197.313619 322.182437) scale(0.1 -0.1)">
       <use xlink:href="#DejaVuSans-31"/>
       <use xlink:href="#DejaVuSans-35" x="63.623047"/>
       <use xlink:href="#DejaVuSans-30" x="127.246094"/>
      </g>
     </g>
    </g>
    <g id="xtick_5">
     <g id="line2d_5">
      <g>
       <use xlink:href="#m9f8faa23fd" x="253.369482" y="307.584" style="stroke: #000000; stroke-width: 0.8"/>
      </g>
     </g>
     <g id="text_5">
      <!-- 200 -->
      <g transform="translate(243.825732 322.182437) scale(0.1 -0.1)">
       <defs>
        <path id="DejaVuSans-32" d="M 1228 531 
L 3431 531 
L 3431 0 
L 469 0 
L 469 531 
Q 828 903 1448 1529 
Q 2069 2156 2228 2338 
Q 2531 2678 2651 2914 
Q 2772 3150 2772 3378 
Q 2772 3750 2511 3984 
Q 2250 4219 1831 4219 
Q 1534 4219 1204 4116 
Q 875 4013 500 3803 
L 500 4441 
Q 881 4594 1212 4672 
Q 1544 4750 1819 4750 
Q 2544 4750 2975 4387 
Q 3406 4025 3406 3419 
Q 3406 3131 3298 2873 
Q 3191 2616 2906 2266 
Q 2828 2175 2409 1742 
Q 1991 1309 1228 531 
z
" transform="scale(0.015625)"/>
       </defs>
       <use xlink:href="#DejaVuSans-32"/>
       <use xlink:href="#DejaVuSans-30" x="63.623047"/>
       <use xlink:href="#DejaVuSans-30" x="127.246094"/>
      </g>
     </g>
    </g>
    <g id="xtick_6">
     <g id="line2d_6">
      <g>
       <use xlink:href="#m9f8faa23fd" x="299.881594" y="307.584" style="stroke: #000000; stroke-width: 0.8"/>
      </g>
     </g>
     <g id="text_6">
      <!-- 250 -->
      <g transform="translate(290.337844 322.182437) scale(0.1 -0.1)">
       <use xlink:href="#DejaVuSans-32"/>
       <use xlink:href="#DejaVuSans-35" x="63.623047"/>
       <use xlink:href="#DejaVuSans-30" x="127.246094"/>
      </g>
     </g>
    </g>
    <g id="xtick_7">
     <g id="line2d_7">
      <g>
       <use xlink:href="#m9f8faa23fd" x="346.393707" y="307.584" style="stroke: #000000; stroke-width: 0.8"/>
      </g>
     </g>
     <g id="text_7">
      <!-- 300 -->
      <g transform="translate(336.849957 322.182437) scale(0.1 -0.1)">
       <defs>
        <path id="DejaVuSans-33" d="M 2597 2516 
Q 3050 2419 3304 2112 
Q 3559 1806 3559 1356 
Q 3559 666 3084 287 
Q 2609 -91 1734 -91 
Q 1441 -91 1130 -33 
Q 819 25 488 141 
L 488 750 
Q 750 597 1062 519 
Q 1375 441 1716 441 
Q 2309 441 2620 675 
Q 2931 909 2931 1356 
Q 2931 1769 2642 2001 
Q 2353 2234 1838 2234 
L 1294 2234 
L 1294 2753 
L 1863 2753 
Q 2328 2753 2575 2939 
Q 2822 3125 2822 3475 
Q 2822 3834 2567 4026 
Q 2313 4219 1838 4219 
Q 1578 4219 1281 4162 
Q 984 4106 628 3988 
L 628 4550 
Q 988 4650 1302 4700 
Q 1616 4750 1894 4750 
Q 2613 4750 3031 4423 
Q 3450 4097 3450 3541 
Q 3450 3153 3228 2886 
Q 3006 2619 2597 2516 
z
" transform="scale(0.015625)"/>
       </defs>
       <use xlink:href="#DejaVuSans-33"/>
       <use xlink:href="#DejaVuSans-30" x="63.623047"/>
       <use xlink:href="#DejaVuSans-30" x="127.246094"/>
      </g>
     </g>
    </g>
    <g id="xtick_8">
     <g id="line2d_8">
      <g>
       <use xlink:href="#m9f8faa23fd" x="392.905819" y="307.584" style="stroke: #000000; stroke-width: 0.8"/>
      </g>
     </g>
     <g id="text_8">
      <!-- 350 -->
      <g transform="translate(383.362069 322.182437) scale(0.1 -0.1)">
       <use xlink:href="#DejaVuSans-33"/>
       <use xlink:href="#DejaVuSans-35" x="63.623047"/>
       <use xlink:href="#DejaVuSans-30" x="127.246094"/>
      </g>
     </g>
    </g>
    <g id="text_9">
     <!-- x - axis -->
     <g transform="translate(218.201406 335.860562) scale(0.1 -0.1)">
      <defs>
       <path id="DejaVuSans-78" d="M 3513 3500 
L 2247 1797 
L 3578 0 
L 2900 0 
L 1881 1375 
L 863 0 
L 184 0 
L 1544 1831 
L 300 3500 
L 978 3500 
L 1906 2253 
L 2834 3500 
L 3513 3500 
z
" transform="scale(0.015625)"/>
       <path id="DejaVuSans-20" transform="scale(0.015625)"/>
       <path id="DejaVuSans-2d" d="M 313 2009 
L 1997 2009 
L 1997 1497 
L 313 1497 
L 313 2009 
z
" transform="scale(0.015625)"/>
       <path id="DejaVuSans-61" d="M 2194 1759 
Q 1497 1759 1228 1600 
Q 959 1441 959 1056 
Q 959 750 1161 570 
Q 1363 391 1709 391 
Q 2188 391 2477 730 
Q 2766 1069 2766 1631 
L 2766 1759 
L 2194 1759 
z
M 3341 1997 
L 3341 0 
L 2766 0 
L 2766 531 
Q 2569 213 2275 61 
Q 1981 -91 1556 -91 
Q 1019 -91 701 211 
Q 384 513 384 1019 
Q 384 1609 779 1909 
Q 1175 2209 1959 2209 
L 2766 2209 
L 2766 2266 
Q 2766 2663 2505 2880 
Q 2244 3097 1772 3097 
Q 1472 3097 1187 3025 
Q 903 2953 641 2809 
L 641 3341 
Q 956 3463 1253 3523 
Q 1550 3584 1831 3584 
Q 2591 3584 2966 3190 
Q 3341 2797 3341 1997 
z
" transform="scale(0.015625)"/>
       <path id="DejaVuSans-69" d="M 603 3500 
L 1178 3500 
L 1178 0 
L 603 0 
L 603 3500 
z
M 603 4863 
L 1178 4863 
L 1178 4134 
L 603 4134 
L 603 4863 
z
" transform="scale(0.015625)"/>
       <path id="DejaVuSans-73" d="M 2834 3397 
L 2834 2853 
Q 2591 2978 2328 3040 
Q 2066 3103 1784 3103 
Q 1356 3103 1142 2972 
Q 928 2841 928 2578 
Q 928 2378 1081 2264 
Q 1234 2150 1697 2047 
L 1894 2003 
Q 2506 1872 2764 1633 
Q 3022 1394 3022 966 
Q 3022 478 2636 193 
Q 2250 -91 1575 -91 
Q 1294 -91 989 -36 
Q 684 19 347 128 
L 347 722 
Q 666 556 975 473 
Q 1284 391 1588 391 
Q 1994 391 2212 530 
Q 2431 669 2431 922 
Q 2431 1156 2273 1281 
Q 2116 1406 1581 1522 
L 1381 1569 
Q 847 1681 609 1914 
Q 372 2147 372 2553 
Q 372 3047 722 3315 
Q 1072 3584 1716 3584 
Q 2034 3584 2315 3537 
Q 2597 3491 2834 3397 
z
" transform="scale(0.015625)"/>
      </defs>
      <use xlink:href="#DejaVuSans-78"/>
      <use xlink:href="#DejaVuSans-20" x="59.179688"/>
      <use xlink:href="#DejaVuSans-2d" x="90.966797"/>
      <use xlink:href="#DejaVuSans-20" x="127.050781"/>
      <use xlink:href="#DejaVuSans-61" x="158.837891"/>
      <use xlink:href="#DejaVuSans-78" x="220.117188"/>
      <use xlink:href="#DejaVuSans-69" x="279.296875"/>
      <use xlink:href="#DejaVuSans-73" x="307.080078"/>
     </g>
    </g>
   </g>
   <g id="matplotlib.axis_2">
    <g id="ytick_1">
     <g id="line2d_9">
      <defs>
       <path id="m9b6f6f9106" d="M 0 0 
L -3.5 0 
" style="stroke: #000000; stroke-width: 0.8"/>
      </defs>
      <g>
       <use xlink:href="#m9b6f6f9106" x="57.6" y="281.763194" style="stroke: #000000; stroke-width: 0.8"/>
      </g>
     </g>
     <g id="text_10">
      <!-- 37 -->
      <g transform="translate(37.875 285.562413) scale(0.1 -0.1)">
       <defs>
        <path id="DejaVuSans-37" d="M 525 4666 
L 3525 4666 
L 3525 4397 
L 1831 0 
L 1172 0 
L 2766 4134 
L 525 4134 
L 525 4666 
z
" transform="scale(0.015625)"/>
       </defs>
       <use xlink:href="#DejaVuSans-33"/>
       <use xlink:href="#DejaVuSans-37" x="63.623047"/>
      </g>
     </g>
    </g>
    <g id="ytick_2">
     <g id="line2d_10">
      <g>
       <use xlink:href="#m9b6f6f9106" x="57.6" y="230.003045" style="stroke: #000000; stroke-width: 0.8"/>
      </g>
     </g>
     <g id="text_11">
      <!-- 38 -->
      <g transform="translate(37.875 233.802264) scale(0.1 -0.1)">
       <defs>
        <path id="DejaVuSans-38" d="M 2034 2216 
Q 1584 2216 1326 1975 
Q 1069 1734 1069 1313 
Q 1069 891 1326 650 
Q 1584 409 2034 409 
Q 2484 409 2743 651 
Q 3003 894 3003 1313 
Q 3003 1734 2745 1975 
Q 2488 2216 2034 2216 
z
M 1403 2484 
Q 997 2584 770 2862 
Q 544 3141 544 3541 
Q 544 4100 942 4425 
Q 1341 4750 2034 4750 
Q 2731 4750 3128 4425 
Q 3525 4100 3525 3541 
Q 3525 3141 3298 2862 
Q 3072 2584 2669 2484 
Q 3125 2378 3379 2068 
Q 3634 1759 3634 1313 
Q 3634 634 3220 271 
Q 2806 -91 2034 -91 
Q 1263 -91 848 271 
Q 434 634 434 1313 
Q 434 1759 690 2068 
Q 947 2378 1403 2484 
z
M 1172 3481 
Q 1172 3119 1398 2916 
Q 1625 2713 2034 2713 
Q 2441 2713 2670 2916 
Q 2900 3119 2900 3481 
Q 2900 3844 2670 4047 
Q 2441 4250 2034 4250 
Q 1625 4250 1398 4047 
Q 1172 3844 1172 3481 
z
" transform="scale(0.015625)"/>
       </defs>
       <use xlink:href="#DejaVuSans-33"/>
       <use xlink:href="#DejaVuSans-38" x="63.623047"/>
      </g>
     </g>
    </g>
    <g id="ytick_3">
     <g id="line2d_11">
      <g>
       <use xlink:href="#m9b6f6f9106" x="57.6" y="178.242896" style="stroke: #000000; stroke-width: 0.8"/>
      </g>
     </g>
     <g id="text_12">
      <!-- 39 -->
      <g transform="translate(37.875 182.042115) scale(0.1 -0.1)">
       <defs>
        <path id="DejaVuSans-39" d="M 703 97 
L 703 672 
Q 941 559 1184 500 
Q 1428 441 1663 441 
Q 2288 441 2617 861 
Q 2947 1281 2994 2138 
Q 2813 1869 2534 1725 
Q 2256 1581 1919 1581 
Q 1219 1581 811 2004 
Q 403 2428 403 3163 
Q 403 3881 828 4315 
Q 1253 4750 1959 4750 
Q 2769 4750 3195 4129 
Q 3622 3509 3622 2328 
Q 3622 1225 3098 567 
Q 2575 -91 1691 -91 
Q 1453 -91 1209 -44 
Q 966 3 703 97 
z
M 1959 2075 
Q 2384 2075 2632 2365 
Q 2881 2656 2881 3163 
Q 2881 3666 2632 3958 
Q 2384 4250 1959 4250 
Q 1534 4250 1286 3958 
Q 1038 3666 1038 3163 
Q 1038 2656 1286 2365 
Q 1534 2075 1959 2075 
z
" transform="scale(0.015625)"/>
       </defs>
       <use xlink:href="#DejaVuSans-33"/>
       <use xlink:href="#DejaVuSans-39" x="63.623047"/>
      </g>
     </g>
    </g>
    <g id="ytick_4">
     <g id="line2d_12">
      <g>
       <use xlink:href="#m9b6f6f9106" x="57.6" y="126.482748" style="stroke: #000000; stroke-width: 0.8"/>
      </g>
     </g>
     <g id="text_13">
      <!-- 40 -->
      <g transform="translate(37.875 130.281966) scale(0.1 -0.1)">
       <defs>
        <path id="DejaVuSans-34" d="M 2419 4116 
L 825 1625 
L 2419 1625 
L 2419 4116 
z
M 2253 4666 
L 3047 4666 
L 3047 1625 
L 3713 1625 
L 3713 1100 
L 3047 1100 
L 3047 0 
L 2419 0 
L 2419 1100 
L 313 1100 
L 313 1709 
L 2253 4666 
z
" transform="scale(0.015625)"/>
       </defs>
       <use xlink:href="#DejaVuSans-34"/>
       <use xlink:href="#DejaVuSans-30" x="63.623047"/>
      </g>
     </g>
    </g>
    <g id="ytick_5">
     <g id="line2d_13">
      <g>
       <use xlink:href="#m9b6f6f9106" x="57.6" y="74.722599" style="stroke: #000000; stroke-width: 0.8"/>
      </g>
     </g>
     <g id="text_14">
      <!-- 41 -->
      <g transform="translate(37.875 78.521817) scale(0.1 -0.1)">
       <use xlink:href="#DejaVuSans-34"/>
       <use xlink:href="#DejaVuSans-31" x="63.623047"/>
      </g>
     </g>
    </g>
    <g id="text_15">
     <!-- y - axis -->
     <g transform="translate(31.795312 192.486594) rotate(-90) scale(0.1 -0.1)">
      <defs>
       <path id="DejaVuSans-79" d="M 2059 -325 
Q 1816 -950 1584 -1140 
Q 1353 -1331 966 -1331 
L 506 -1331 
L 506 -850 
L 844 -850 
Q 1081 -850 1212 -737 
Q 1344 -625 1503 -206 
L 1606 56 
L 191 3500 
L 800 3500 
L 1894 763 
L 2988 3500 
L 3597 3500 
L 2059 -325 
z
" transform="scale(0.015625)"/>
      </defs>
      <use xlink:href="#DejaVuSans-79"/>
      <use xlink:href="#DejaVuSans-20" x="59.179688"/>
      <use xlink:href="#DejaVuSans-2d" x="90.966797"/>
      <use xlink:href="#DejaVuSans-20" x="127.050781"/>
      <use xlink:href="#DejaVuSans-61" x="158.837891"/>
      <use xlink:href="#DejaVuSans-78" x="220.117188"/>
      <use xlink:href="#DejaVuSans-69" x="279.296875"/>
      <use xlink:href="#DejaVuSans-73" x="307.080078"/>
     </g>
    </g>
   </g>
   <g id="line2d_14">
    <path d="M 73.832727 229.643178 
L 74.76297 165.790886 
L 75.693212 165.845794 
L 76.623454 164.879241 
L 77.553696 165.307108 
L 78.483939 164.89202 
L 79.414181 165.29246 
L 81.274665 168.886547 
L 82.204908 168.98311 
L 83.13515 169.932065 
L 84.065392 171.284091 
L 84.995634 171.480123 
L 86.856119 174.227289 
L 87.786361 173.84984 
L 88.716603 172.603395 
L 89.646846 173.508422 
L 90.577088 174.108073 
L 92.437572 173.949671 
L 94.298057 174.706687 
L 95.228299 173.44808 
L 96.158541 173.310996 
L 97.088784 174.824069 
L 98.019026 174.662058 
L 98.949268 173.188916 
L 99.87951 172.516376 
L 100.809753 173.516955 
L 101.739995 173.806203 
L 102.670237 173.62802 
L 103.600479 174.79994 
L 104.530722 174.161734 
L 106.391206 169.136005 
L 107.321448 168.435999 
L 108.251691 167.444923 
L 109.181933 165.363032 
L 110.112175 161.818407 
L 111.042417 160.130035 
L 112.902902 160.134026 
L 113.833144 158.07676 
L 114.763386 157.41892 
L 115.693629 158.227132 
L 116.623871 160.047619 
L 117.554113 158.479102 
L 118.484355 155.050581 
L 120.34484 143.226439 
L 121.275082 153.944928 
L 122.205324 166.568766 
L 123.135567 174.766891 
L 124.065809 172.762183 
L 124.996051 162.354367 
L 125.926293 154.031853 
L 126.856536 149.346341 
L 128.71702 171.205885 
L 129.647262 176.363418 
L 130.577505 176.85793 
L 131.507747 171.696012 
L 132.437989 171.534135 
L 133.368231 172.086123 
L 134.298474 172.964689 
L 135.228716 172.891037 
L 136.158958 173.444104 
L 137.0892 173.326509 
L 138.019443 172.622652 
L 138.949685 173.345408 
L 139.879927 174.527052 
L 140.810169 173.239388 
L 141.740412 178.7724 
L 142.670654 179.302634 
L 143.600896 178.484471 
L 145.461381 186.966045 
L 146.391623 191.333067 
L 147.321865 188.338464 
L 148.252107 192.555467 
L 149.18235 206.032653 
L 150.112592 213.507499 
L 151.042834 211.68251 
L 151.973076 218.708964 
L 152.903319 230.247462 
L 153.833561 228.512686 
L 154.763803 222.757399 
L 155.694045 222.579965 
L 156.624288 219.341806 
L 158.484772 209.927443 
L 159.415014 203.247842 
L 160.345257 211.828348 
L 161.275499 205.363425 
L 162.205741 187.277214 
L 163.135983 184.77377 
L 164.066226 191.793394 
L 164.996468 188.210002 
L 165.92671 171.69838 
L 166.856952 177.981572 
L 167.787195 186.654479 
L 168.717437 180.346004 
L 169.647679 177.74146 
L 170.577921 177.984019 
L 171.508164 173.891913 
L 172.438406 170.520834 
L 173.368648 159.170258 
L 174.29889 156.836761 
L 175.229133 156.375319 
L 176.159375 152.319886 
L 177.089617 217.684996 
L 178.019859 202.895739 
L 178.950102 205.945545 
L 179.880344 191.207385 
L 180.810586 179.37296 
L 182.671071 198.175349 
L 183.601313 199.640704 
L 184.531555 196.311317 
L 185.461797 201.7209 
L 186.39204 196.273033 
L 187.322282 197.777129 
L 188.252524 208.330655 
L 189.182766 211.366076 
L 190.113009 144.131875 
L 191.043251 152.225882 
L 191.973493 155.249531 
L 192.903735 156.589287 
L 193.833978 158.473122 
L 194.76422 160.077366 
L 195.694462 167.295041 
L 196.624704 167.503488 
L 197.554947 169.939833 
L 198.485189 178.335291 
L 199.415431 188.965759 
L 200.345673 190.530618 
L 202.206158 188.442173 
L 203.1364 188.368138 
L 204.066642 185.103156 
L 204.996885 186.854773 
L 205.927127 189.665357 
L 206.857369 188.393941 
L 207.787611 185.947769 
L 208.717854 177.109327 
L 209.648096 185.221136 
L 210.578338 185.945838 
L 211.50858 181.23085 
L 212.438823 171.913414 
L 213.369065 168.855692 
L 214.299307 171.421655 
L 215.229549 170.781504 
L 216.159792 170.69363 
L 217.090034 171.347971 
L 218.020276 171.433028 
L 218.950518 169.632535 
L 219.880761 170.21647 
L 220.811003 171.091415 
L 221.741245 171.357007 
L 222.671487 164.8509 
L 223.60173 164.010303 
L 224.531972 163.870109 
L 225.462214 164.647593 
L 226.392456 165.619 
L 227.322699 163.636441 
L 228.252941 166.61433 
L 229.183183 170.444167 
L 230.113425 173.78526 
L 231.043668 175.26998 
L 231.97391 175.96348 
L 232.904152 177.056772 
L 233.834394 177.360842 
L 234.764637 185.399558 
L 235.694879 191.725237 
L 236.625121 197.192097 
L 237.555363 189.259251 
L 238.485606 192.1239 
L 239.415848 186.606325 
L 240.34609 186.009834 
L 241.276332 192.246066 
L 243.136817 196.740234 
L 244.067059 189.144962 
L 244.997301 190.951485 
L 245.927544 180.253362 
L 246.857786 176.973696 
L 247.788028 175.567982 
L 249.648513 171.583359 
L 250.578755 171.603169 
L 251.508997 170.862718 
L 252.439239 167.176293 
L 253.369482 164.337943 
L 254.299724 162.258526 
L 255.229966 160.772116 
L 256.160208 159.759875 
L 257.090451 159.580086 
L 258.020693 159.682842 
L 258.950935 161.228781 
L 260.81142 167.422235 
L 261.741662 170.73632 
L 263.602146 178.254431 
L 265.462631 185.012976 
L 266.392873 189.233207 
L 267.323115 195.051284 
L 268.253358 199.695555 
L 269.1836 203.521321 
L 270.113842 208.412979 
L 271.044084 211.821328 
L 273.834811 219.519836 
L 274.765053 220.400545 
L 275.695296 222.139464 
L 276.625538 224.810075 
L 277.55578 225.38189 
L 279.416265 228.209935 
L 280.346507 229.614201 
L 281.276749 231.468686 
L 282.206991 232.36471 
L 283.137234 231.266578 
L 284.067476 231.577903 
L 286.858203 236.493237 
L 287.788445 236.795655 
L 289.648929 235.302011 
L 290.579172 235.321368 
L 291.509414 236.201213 
L 292.439656 237.95733 
L 293.369898 238.242302 
L 295.230383 235.803068 
L 296.160625 235.949754 
L 298.02111 235.292087 
L 299.881594 235.118448 
L 300.811836 235.464183 
L 301.742079 234.557724 
L 302.672321 234.297872 
L 303.602563 232.8917 
L 305.463048 231.848051 
L 306.39329 230.458855 
L 307.323532 230.06215 
L 308.253774 229.792792 
L 309.184017 228.744403 
L 310.114259 226.556994 
L 311.044501 226.890845 
L 311.974743 229.532824 
L 313.835228 232.66231 
L 314.76547 234.75019 
L 315.695712 235.136226 
L 316.625955 234.201203 
L 317.556197 234.769183 
L 318.486439 236.071421 
L 319.416681 237.917505 
L 320.346924 247.530808 
L 322.207408 259.582384 
L 323.13765 295.086605 
L 324.067893 295.488 
L 324.998135 281.860344 
L 325.928377 277.630282 
L 326.858619 284.932885 
L 328.719104 294.70145 
L 329.649346 293.116437 
L 330.579588 292.331408 
L 331.509831 278.725371 
L 332.440073 275.319539 
L 333.370315 273.489538 
L 334.300557 274.038972 
L 335.2308 273.978396 
L 336.161042 235.937019 
L 337.091284 233.581393 
L 338.021526 232.474754 
L 338.951769 232.450233 
L 339.882011 230.631218 
L 342.672738 228.116671 
L 343.60298 226.007585 
L 344.533222 224.608854 
L 345.463464 223.972117 
L 346.393707 224.032702 
L 347.323949 223.833559 
L 348.254191 222.944919 
L 349.184433 229.809815 
L 350.114676 227.410907 
L 351.044918 226.020315 
L 351.97516 223.115213 
L 352.905402 221.508104 
L 353.835645 219.056274 
L 355.696129 212.550084 
L 357.556614 208.118144 
L 359.417098 199.834226 
L 360.34734 197.147763 
L 361.277583 193.99822 
L 362.207825 183.431169 
L 363.138067 182.096305 
L 364.998552 178.445101 
L 365.928794 175.56017 
L 366.859036 174.87958 
L 367.789278 174.872372 
L 369.649763 175.666714 
L 370.580005 174.692335 
L 371.510247 173.261524 
L 372.44049 170.931608 
L 373.370732 167.65099 
L 374.300974 164.848656 
L 375.231216 164.438194 
L 376.161459 164.590959 
L 377.091701 162.031253 
L 378.021943 148.594201 
L 378.952185 145.514752 
L 379.882428 147.204875 
L 380.81267 149.205801 
L 381.742912 150.179326 
L 382.673154 147.286795 
L 383.603397 147.020668 
L 384.533639 133.865512 
L 385.463881 130.674822 
L 386.394123 134.439034 
L 387.324366 139.112633 
L 388.254608 141.672016 
L 389.18485 140.408541 
L 390.115092 141.952686 
L 392.905819 139.702372 
L 393.836061 139.737625 
L 394.766304 139.325836 
L 395.696546 139.569619 
L 398.487273 136.433129 
L 398.487273 136.433129 
" clip-path="url(#p39e6e5ef0c)" style="fill: none; stroke: #000000; stroke-width: 2; stroke-linecap: round"/>
   </g>
   <g id="line2d_15">
    <path d="M 73.832727 87.050505 
L 74.76297 102.520468 
L 78.483939 180.284028 
L 79.414181 193.836861 
L 80.344423 203.55033 
L 81.274665 209.461176 
L 82.204908 211.858162 
L 83.13515 211.194499 
L 84.065392 208.01808 
L 84.995634 202.916966 
L 85.925877 196.477842 
L 89.646846 167.555686 
L 90.577088 161.504188 
L 91.50733 156.447039 
L 92.437572 152.514473 
L 93.367815 149.769584 
L 94.298057 148.215869 
L 95.228299 147.805699 
L 96.158541 148.449246 
L 97.088784 150.023494 
L 98.019026 152.381026 
L 98.949268 155.358354 
L 100.809753 162.483432 
L 103.600479 173.596056 
L 104.530722 176.824744 
L 105.460964 179.619866 
L 106.391206 181.895015 
L 107.321448 183.586059 
L 108.251691 184.651292 
L 109.181933 185.070967 
L 110.112175 184.846283 
L 111.042417 183.997914 
L 111.97266 182.564169 
L 112.902902 180.59885 
L 113.833144 178.168909 
L 115.693629 172.233679 
L 121.275082 152.385485 
L 122.205324 149.721264 
L 123.135567 147.446675 
L 124.065809 145.619699 
L 124.996051 144.28763 
L 125.926293 143.486474 
L 126.856536 143.240601 
L 127.786778 143.562656 
L 128.71702 144.453696 
L 129.647262 145.903554 
L 130.577505 147.891401 
L 131.507747 150.386486 
L 132.437989 153.349028 
L 134.298474 160.478494 
L 136.158958 168.822428 
L 142.670654 199.821786 
L 144.531138 207.037639 
L 145.461381 210.100765 
L 146.391623 212.750035 
L 147.321865 214.956614 
L 148.252107 216.699346 
L 149.18235 217.964901 
L 150.112592 218.747782 
L 151.042834 219.050208 
L 151.973076 218.881871 
L 152.903319 218.259584 
L 153.833561 217.206816 
L 154.763803 215.753141 
L 155.694045 213.9336 
L 156.624288 211.787992 
L 158.484772 206.696954 
L 161.275499 197.795796 
L 164.996468 185.694124 
L 166.856952 180.391423 
L 168.717437 175.998192 
L 169.647679 174.213615 
L 170.577921 172.731021 
L 171.508164 171.563865 
L 172.438406 170.719859 
L 173.368648 170.200975 
L 174.29889 170.003532 
L 175.229133 170.118377 
L 176.159375 170.531146 
L 177.089617 171.222607 
L 178.019859 172.169073 
L 178.950102 173.342875 
L 180.810586 176.245166 
L 183.601313 181.445747 
L 186.39204 186.74167 
L 188.252524 189.825892 
L 189.182766 191.13359 
L 190.113009 192.247088 
L 191.043251 193.142509 
L 191.973493 193.800095 
L 192.903735 194.204511 
L 193.833978 194.345078 
L 194.76422 194.215927 
L 195.694462 193.816076 
L 196.624704 193.149424 
L 197.554947 192.224666 
L 198.485189 191.055128 
L 199.415431 189.658529 
L 201.275916 186.275072 
L 203.1364 182.290502 
L 209.648096 167.55333 
L 211.50858 164.288371 
L 212.438823 162.971686 
L 213.369065 161.897519 
L 214.299307 161.084923 
L 215.229549 160.548562 
L 216.159792 160.298428 
L 217.090034 160.339624 
L 218.020276 160.672244 
L 218.950518 161.291315 
L 219.880761 162.186849 
L 220.811003 163.343957 
L 221.741245 164.74306 
L 223.60173 168.167293 
L 225.462214 172.222018 
L 231.043668 185.176446 
L 232.904152 188.697523 
L 233.834394 190.142418 
L 234.764637 191.336647 
L 235.694879 192.255175 
L 236.625121 192.877714 
L 237.555363 193.189197 
L 238.485606 193.18016 
L 239.415848 192.847006 
L 240.34609 192.192241 
L 241.276332 191.224525 
L 242.206575 189.958714 
L 243.136817 188.415692 
L 244.997301 184.610414 
L 246.857786 180.085825 
L 251.508997 168.036823 
L 253.369482 164.013081 
L 254.299724 162.380833 
L 255.229966 161.065611 
L 256.160208 160.110661 
L 257.090451 159.554487 
L 258.020693 159.429899 
L 258.950935 159.763464 
L 259.881177 160.574745 
L 260.81142 161.875837 
L 261.741662 163.670993 
L 262.671904 165.956265 
L 263.602146 168.719472 
L 264.532389 171.940084 
L 266.392873 179.631276 
L 268.253358 188.70988 
L 271.044084 203.971648 
L 274.765053 224.59716 
L 276.625538 233.764196 
L 278.486022 241.474011 
L 279.416265 244.64776 
L 280.346507 247.31 
L 281.276749 249.428566 
L 282.206991 250.980824 
L 283.137234 251.954397 
L 284.067476 252.347488 
L 284.997718 252.169222 
L 285.92796 251.439604 
L 286.858203 250.189239 
L 287.788445 248.459177 
L 288.718687 246.29991 
L 290.579172 240.939362 
L 293.369898 231.390575 
L 296.160625 221.995083 
L 298.02111 216.913307 
L 298.951352 214.948945 
L 299.881594 213.451025 
L 300.811836 212.469371 
L 301.742079 212.042412 
L 302.672321 212.19676 
L 303.602563 212.946004 
L 304.532805 214.290394 
L 305.463048 216.216422 
L 306.39329 218.697209 
L 307.323532 221.692727 
L 309.184017 229.006928 
L 311.044501 237.612862 
L 315.695712 260.184765 
L 317.556197 267.709619 
L 318.486439 270.822685 
L 319.416681 273.420617 
L 320.346924 275.457614 
L 321.277166 276.902024 
L 322.207408 277.737767 
L 323.13765 277.964352 
L 324.067893 277.597219 
L 324.998135 276.667416 
L 325.928377 275.219968 
L 326.858619 273.313808 
L 327.788862 271.018393 
L 329.649346 265.581597 
L 334.300557 251.095806 
L 336.161042 246.545913 
L 337.091284 244.736013 
L 338.021526 243.254378 
L 338.951769 242.091871 
L 339.882011 241.219288 
L 340.812253 240.590079 
L 342.672738 239.792484 
L 344.533222 239.037769 
L 345.463464 238.436029 
L 346.393707 237.554217 
L 347.323949 236.302173 
L 348.254191 234.602535 
L 349.184433 232.395049 
L 350.114676 229.640912 
L 351.044918 226.327114 
L 351.97516 222.468832 
L 353.835645 213.336575 
L 359.417098 183.251756 
L 360.34734 179.523044 
L 361.277583 176.580083 
L 362.207825 174.523751 
L 363.138067 173.419281 
L 364.068309 173.274225 
L 364.998552 174.039864 
L 365.928794 175.605547 
L 366.859036 177.79678 
L 369.649763 185.570493 
L 370.580005 187.510644 
L 371.510247 188.559949 
L 372.44049 188.401678 
L 373.370732 186.770597 
L 374.300974 183.479563 
L 375.231216 178.447357 
L 376.161459 171.718541 
L 377.091701 163.478496 
L 378.952185 143.97863 
L 380.81267 124.326138 
L 381.742912 116.265872 
L 382.673154 110.413596 
L 383.603397 107.460254 
L 384.533639 107.940503 
L 385.463881 112.129409 
L 386.394123 119.988092 
L 387.324366 131.061563 
L 391.045335 183.729012 
L 391.975577 190.081097 
L 392.905819 189.818576 
L 393.836061 181.561823 
L 394.766304 164.805949 
L 395.696546 140.318163 
L 398.487273 53.568 
L 398.487273 53.568 
" clip-path="url(#p39e6e5ef0c)" style="fill: none; stroke: #ff0000; stroke-width: 1.5; stroke-linecap: square"/>
   </g>
   <g id="patch_3">
    <path d="M 57.6 307.584 
L 57.6 41.472 
" style="fill: none; stroke: #000000; stroke-width: 0.8; stroke-linejoin: miter; stroke-linecap: square"/>
   </g>
   <g id="patch_4">
    <path d="M 414.72 307.584 
L 414.72 41.472 
" style="fill: none; stroke: #000000; stroke-width: 0.8; stroke-linejoin: miter; stroke-linecap: square"/>
   </g>
   <g id="patch_5">
    <path d="M 57.6 307.584 
L 414.72 307.584 
" style="fill: none; stroke: #000000; stroke-width: 0.8; stroke-linejoin: miter; stroke-linecap: square"/>
   </g>
   <g id="patch_6">
    <path d="M 57.6 41.472 
L 414.72 41.472 
" style="fill: none; stroke: #000000; stroke-width: 0.8; stroke-linejoin: miter; stroke-linecap: square"/>
   </g>
   <g id="text_16">
    <!-- Graph of Adidas -->
    <g transform="translate(188.071875 35.472) scale(0.12 -0.12)">
     <defs>
      <path id="DejaVuSans-47" d="M 3809 666 
L 3809 1919 
L 2778 1919 
L 2778 2438 
L 4434 2438 
L 4434 434 
Q 4069 175 3628 42 
Q 3188 -91 2688 -91 
Q 1594 -91 976 548 
Q 359 1188 359 2328 
Q 359 3472 976 4111 
Q 1594 4750 2688 4750 
Q 3144 4750 3555 4637 
Q 3966 4525 4313 4306 
L 4313 3634 
Q 3963 3931 3569 4081 
Q 3175 4231 2741 4231 
Q 1884 4231 1454 3753 
Q 1025 3275 1025 2328 
Q 1025 1384 1454 906 
Q 1884 428 2741 428 
Q 3075 428 3337 486 
Q 3600 544 3809 666 
z
" transform="scale(0.015625)"/>
      <path id="DejaVuSans-72" d="M 2631 2963 
Q 2534 3019 2420 3045 
Q 2306 3072 2169 3072 
Q 1681 3072 1420 2755 
Q 1159 2438 1159 1844 
L 1159 0 
L 581 0 
L 581 3500 
L 1159 3500 
L 1159 2956 
Q 1341 3275 1631 3429 
Q 1922 3584 2338 3584 
Q 2397 3584 2469 3576 
Q 2541 3569 2628 3553 
L 2631 2963 
z
" transform="scale(0.015625)"/>
      <path id="DejaVuSans-70" d="M 1159 525 
L 1159 -1331 
L 581 -1331 
L 581 3500 
L 1159 3500 
L 1159 2969 
Q 1341 3281 1617 3432 
Q 1894 3584 2278 3584 
Q 2916 3584 3314 3078 
Q 3713 2572 3713 1747 
Q 3713 922 3314 415 
Q 2916 -91 2278 -91 
Q 1894 -91 1617 61 
Q 1341 213 1159 525 
z
M 3116 1747 
Q 3116 2381 2855 2742 
Q 2594 3103 2138 3103 
Q 1681 3103 1420 2742 
Q 1159 2381 1159 1747 
Q 1159 1113 1420 752 
Q 1681 391 2138 391 
Q 2594 391 2855 752 
Q 3116 1113 3116 1747 
z
" transform="scale(0.015625)"/>
      <path id="DejaVuSans-68" d="M 3513 2113 
L 3513 0 
L 2938 0 
L 2938 2094 
Q 2938 2591 2744 2837 
Q 2550 3084 2163 3084 
Q 1697 3084 1428 2787 
Q 1159 2491 1159 1978 
L 1159 0 
L 581 0 
L 581 4863 
L 1159 4863 
L 1159 2956 
Q 1366 3272 1645 3428 
Q 1925 3584 2291 3584 
Q 2894 3584 3203 3211 
Q 3513 2838 3513 2113 
z
" transform="scale(0.015625)"/>
      <path id="DejaVuSans-6f" d="M 1959 3097 
Q 1497 3097 1228 2736 
Q 959 2375 959 1747 
Q 959 1119 1226 758 
Q 1494 397 1959 397 
Q 2419 397 2687 759 
Q 2956 1122 2956 1747 
Q 2956 2369 2687 2733 
Q 2419 3097 1959 3097 
z
M 1959 3584 
Q 2709 3584 3137 3096 
Q 3566 2609 3566 1747 
Q 3566 888 3137 398 
Q 2709 -91 1959 -91 
Q 1206 -91 779 398 
Q 353 888 353 1747 
Q 353 2609 779 3096 
Q 1206 3584 1959 3584 
z
" transform="scale(0.015625)"/>
      <path id="DejaVuSans-66" d="M 2375 4863 
L 2375 4384 
L 1825 4384 
Q 1516 4384 1395 4259 
Q 1275 4134 1275 3809 
L 1275 3500 
L 2222 3500 
L 2222 3053 
L 1275 3053 
L 1275 0 
L 697 0 
L 697 3053 
L 147 3053 
L 147 3500 
L 697 3500 
L 697 3744 
Q 697 4328 969 4595 
Q 1241 4863 1831 4863 
L 2375 4863 
z
" transform="scale(0.015625)"/>
      <path id="DejaVuSans-41" d="M 2188 4044 
L 1331 1722 
L 3047 1722 
L 2188 4044 
z
M 1831 4666 
L 2547 4666 
L 4325 0 
L 3669 0 
L 3244 1197 
L 1141 1197 
L 716 0 
L 50 0 
L 1831 4666 
z
" transform="scale(0.015625)"/>
      <path id="DejaVuSans-64" d="M 2906 2969 
L 2906 4863 
L 3481 4863 
L 3481 0 
L 2906 0 
L 2906 525 
Q 2725 213 2448 61 
Q 2172 -91 1784 -91 
Q 1150 -91 751 415 
Q 353 922 353 1747 
Q 353 2572 751 3078 
Q 1150 3584 1784 3584 
Q 2172 3584 2448 3432 
Q 2725 3281 2906 2969 
z
M 947 1747 
Q 947 1113 1208 752 
Q 1469 391 1925 391 
Q 2381 391 2643 752 
Q 2906 1113 2906 1747 
Q 2906 2381 2643 2742 
Q 2381 3103 1925 3103 
Q 1469 3103 1208 2742 
Q 947 2381 947 1747 
z
" transform="scale(0.015625)"/>
     </defs>
     <use xlink:href="#DejaVuSans-47"/>
     <use xlink:href="#DejaVuSans-72" x="77.490234"/>
     <use xlink:href="#DejaVuSans-61" x="118.603516"/>
     <use xlink:href="#DejaVuSans-70" x="179.882812"/>
     <use xlink:href="#DejaVuSans-68" x="243.359375"/>
     <use xlink:href="#DejaVuSans-20" x="306.738281"/>
     <use xlink:href="#DejaVuSans-6f" x="338.525391"/>
     <use xlink:href="#DejaVuSans-66" x="399.707031"/>
     <use xlink:href="#DejaVuSans-20" x="434.912109"/>
     <use xlink:href="#DejaVuSans-41" x="466.699219"/>
     <use xlink:href="#DejaVuSans-64" x="533.357422"/>
     <use xlink:href="#DejaVuSans-69" x="596.833984"/>
     <use xlink:href="#DejaVuSans-64" x="624.617188"/>
     <use xlink:href="#DejaVuSans-61" x="688.09375"/>
     <use xlink:href="#DejaVuSans-73" x="749.373047"/>
    </g>
   </g>
  </g>
 </g>
 <defs>
  <clipPath id="p39e6e5ef0c">
   <rect x="57.6" y="41.472" width="357.12" height="266.112"/>
  </clipPath>
 </defs>
</svg>
